<mxfile host="app.diagrams.net" modified="2023-09-01T05:24:58.686Z" agent="Mozilla/5.0 (Macintosh; Intel Mac OS X 10_15_7) AppleWebKit/537.36 (KHTML, like Gecko) Chrome/116.0.0.0 Safari/537.36" version="21.6.9" etag="pE329uF2Z52fCel0oqPK" type="github">
  <diagram name="Page-1" id="fA3u-GXtUFKHO4X6yB6d">
    <mxGraphModel>
      <root>
        <mxCell id="0" />
        <mxCell id="1" parent="0" />
      </root>
    </mxGraphModel>
  </diagram>
</mxfile>
